<mxfile host="app.diagrams.net" modified="2021-10-13T19:20:44.843Z" agent="5.0 (Windows NT 10.0; Win64; x64) AppleWebKit/537.36 (KHTML, like Gecko) Chrome/93.0.4577.82 Safari/537.36 OPR/79.0.4143.73" etag="tSeFhwE8didSrKCNXCGM" version="15.5.2" type="github">
  <diagram id="1LI9LJvWQupGowofKMpz" name="Page-1">
    <mxGraphModel dx="1602" dy="885" grid="1" gridSize="10" guides="1" tooltips="1" connect="1" arrows="1" fold="1" page="1" pageScale="1" pageWidth="827" pageHeight="1169" math="0" shadow="0">
      <root>
        <mxCell id="0" />
        <mxCell id="1" parent="0" />
        <mxCell id="7SXReEPjRnSmOGjXH85K-4" style="edgeStyle=orthogonalEdgeStyle;rounded=0;orthogonalLoop=1;jettySize=auto;html=1;exitX=0.5;exitY=1;exitDx=0;exitDy=0;entryX=0.5;entryY=0;entryDx=0;entryDy=0;" parent="1" source="7SXReEPjRnSmOGjXH85K-2" target="7SXReEPjRnSmOGjXH85K-5" edge="1">
          <mxGeometry relative="1" as="geometry">
            <mxPoint x="414" y="200" as="targetPoint" />
          </mxGeometry>
        </mxCell>
        <mxCell id="7SXReEPjRnSmOGjXH85K-2" value="START" style="ellipse;whiteSpace=wrap;html=1;" parent="1" vertex="1">
          <mxGeometry x="354" y="30" width="120" height="80" as="geometry" />
        </mxCell>
        <mxCell id="7SXReEPjRnSmOGjXH85K-21" style="edgeStyle=orthogonalEdgeStyle;rounded=0;orthogonalLoop=1;jettySize=auto;html=1;exitX=0.5;exitY=1;exitDx=0;exitDy=0;" parent="1" source="7SXReEPjRnSmOGjXH85K-5" edge="1">
          <mxGeometry relative="1" as="geometry">
            <mxPoint x="414" y="330" as="targetPoint" />
          </mxGeometry>
        </mxCell>
        <mxCell id="7SXReEPjRnSmOGjXH85K-5" value="Wczytaj (a)" style="shape=parallelogram;perimeter=parallelogramPerimeter;whiteSpace=wrap;html=1;fixedSize=1;" parent="1" vertex="1">
          <mxGeometry x="320" y="200" width="120" height="60" as="geometry" />
        </mxCell>
        <mxCell id="7SXReEPjRnSmOGjXH85K-14" value="TAK" style="edgeStyle=orthogonalEdgeStyle;rounded=0;orthogonalLoop=1;jettySize=auto;html=1;entryX=0.5;entryY=0;entryDx=0;entryDy=0;" parent="1" source="7SXReEPjRnSmOGjXH85K-7" target="7SXReEPjRnSmOGjXH85K-15" edge="1">
          <mxGeometry x="-0.5946" relative="1" as="geometry">
            <mxPoint x="200" y="530" as="targetPoint" />
            <mxPoint as="offset" />
          </mxGeometry>
        </mxCell>
        <mxCell id="7SXReEPjRnSmOGjXH85K-19" value="NIE" style="edgeStyle=orthogonalEdgeStyle;rounded=0;orthogonalLoop=1;jettySize=auto;html=1;entryX=0.5;entryY=0;entryDx=0;entryDy=0;" parent="1" source="7SXReEPjRnSmOGjXH85K-7" target="7SXReEPjRnSmOGjXH85K-25" edge="1">
          <mxGeometry x="-0.4912" relative="1" as="geometry">
            <mxPoint x="650" y="600" as="targetPoint" />
            <mxPoint as="offset" />
          </mxGeometry>
        </mxCell>
        <mxCell id="7SXReEPjRnSmOGjXH85K-7" value="a = x&amp;nbsp;" style="rhombus;whiteSpace=wrap;html=1;" parent="1" vertex="1">
          <mxGeometry x="374" y="450" width="80" height="80" as="geometry" />
        </mxCell>
        <mxCell id="7SXReEPjRnSmOGjXH85K-16" style="edgeStyle=orthogonalEdgeStyle;rounded=0;orthogonalLoop=1;jettySize=auto;html=1;exitX=0.5;exitY=1;exitDx=0;exitDy=0;entryX=0.5;entryY=0;entryDx=0;entryDy=0;" parent="1" source="7SXReEPjRnSmOGjXH85K-15" target="7SXReEPjRnSmOGjXH85K-17" edge="1">
          <mxGeometry relative="1" as="geometry">
            <mxPoint x="290" y="790" as="targetPoint" />
            <mxPoint x="190" y="640" as="sourcePoint" />
          </mxGeometry>
        </mxCell>
        <mxCell id="7SXReEPjRnSmOGjXH85K-15" value="Wypisz (&quot;To liczba pierwsza&quot;)" style="shape=parallelogram;perimeter=parallelogramPerimeter;whiteSpace=wrap;html=1;fixedSize=1;" parent="1" vertex="1">
          <mxGeometry x="-10" y="670" width="200" height="70" as="geometry" />
        </mxCell>
        <mxCell id="7SXReEPjRnSmOGjXH85K-17" value="Koniec&lt;br&gt;" style="ellipse;whiteSpace=wrap;html=1;" parent="1" vertex="1">
          <mxGeometry x="140" y="890" width="120" height="80" as="geometry" />
        </mxCell>
        <mxCell id="7SXReEPjRnSmOGjXH85K-23" style="edgeStyle=orthogonalEdgeStyle;rounded=0;orthogonalLoop=1;jettySize=auto;html=1;entryX=0.5;entryY=0;entryDx=0;entryDy=0;" parent="1" source="7SXReEPjRnSmOGjXH85K-22" target="7SXReEPjRnSmOGjXH85K-7" edge="1">
          <mxGeometry relative="1" as="geometry" />
        </mxCell>
        <mxCell id="7SXReEPjRnSmOGjXH85K-22" value="x = 2" style="rounded=0;whiteSpace=wrap;html=1;" parent="1" vertex="1">
          <mxGeometry x="340" y="330" width="120" height="60" as="geometry" />
        </mxCell>
        <mxCell id="7SXReEPjRnSmOGjXH85K-29" style="edgeStyle=orthogonalEdgeStyle;rounded=0;orthogonalLoop=1;jettySize=auto;html=1;entryX=0.5;entryY=0;entryDx=0;entryDy=0;" parent="1" source="7SXReEPjRnSmOGjXH85K-25" target="7SXReEPjRnSmOGjXH85K-30" edge="1">
          <mxGeometry relative="1" as="geometry">
            <mxPoint x="670" y="890" as="targetPoint" />
          </mxGeometry>
        </mxCell>
        <mxCell id="zk_N-KAy8oIJpdstm_qa-1" value="TAK" style="edgeLabel;html=1;align=center;verticalAlign=middle;resizable=0;points=[];" vertex="1" connectable="0" parent="7SXReEPjRnSmOGjXH85K-29">
          <mxGeometry x="-0.3508" y="2" relative="1" as="geometry">
            <mxPoint as="offset" />
          </mxGeometry>
        </mxCell>
        <mxCell id="7SXReEPjRnSmOGjXH85K-35" style="edgeStyle=orthogonalEdgeStyle;rounded=0;orthogonalLoop=1;jettySize=auto;html=1;entryX=0.5;entryY=1;entryDx=0;entryDy=0;" parent="1" source="7SXReEPjRnSmOGjXH85K-25" target="7SXReEPjRnSmOGjXH85K-32" edge="1">
          <mxGeometry relative="1" as="geometry" />
        </mxCell>
        <mxCell id="zk_N-KAy8oIJpdstm_qa-2" value="NIE" style="edgeLabel;html=1;align=center;verticalAlign=middle;resizable=0;points=[];" vertex="1" connectable="0" parent="7SXReEPjRnSmOGjXH85K-35">
          <mxGeometry x="-0.7218" y="2" relative="1" as="geometry">
            <mxPoint as="offset" />
          </mxGeometry>
        </mxCell>
        <mxCell id="7SXReEPjRnSmOGjXH85K-25" value="a % x = 0" style="rhombus;whiteSpace=wrap;html=1;" parent="1" vertex="1">
          <mxGeometry x="480" y="580" width="130" height="120" as="geometry" />
        </mxCell>
        <mxCell id="7SXReEPjRnSmOGjXH85K-31" style="edgeStyle=orthogonalEdgeStyle;rounded=0;orthogonalLoop=1;jettySize=auto;html=1;exitX=0.25;exitY=1;exitDx=0;exitDy=0;" parent="1" source="7SXReEPjRnSmOGjXH85K-30" target="7SXReEPjRnSmOGjXH85K-17" edge="1">
          <mxGeometry relative="1" as="geometry" />
        </mxCell>
        <mxCell id="7SXReEPjRnSmOGjXH85K-30" value="Wypisz &lt;br&gt;(&quot;To nie jest liczba pierwsza&quot;)" style="shape=parallelogram;perimeter=parallelogramPerimeter;whiteSpace=wrap;html=1;fixedSize=1;" parent="1" vertex="1">
          <mxGeometry x="250" y="660" width="190" height="80" as="geometry" />
        </mxCell>
        <mxCell id="7SXReEPjRnSmOGjXH85K-34" style="edgeStyle=orthogonalEdgeStyle;rounded=0;orthogonalLoop=1;jettySize=auto;html=1;entryX=0.5;entryY=0;entryDx=0;entryDy=0;" parent="1" source="7SXReEPjRnSmOGjXH85K-32" target="7SXReEPjRnSmOGjXH85K-7" edge="1">
          <mxGeometry relative="1" as="geometry" />
        </mxCell>
        <mxCell id="7SXReEPjRnSmOGjXH85K-32" value="x=x+1" style="rounded=0;whiteSpace=wrap;html=1;" parent="1" vertex="1">
          <mxGeometry x="680" y="390" width="120" height="60" as="geometry" />
        </mxCell>
      </root>
    </mxGraphModel>
  </diagram>
</mxfile>
